REM MD5 4f3c8ec8a57e4df87af74934aee86eff
FILE "Honkaku Igo (Japan).bin" BINARY
  TRACK 01 MODE2/2352
    INDEX 01 00:00:00
  TRACK 02 AUDIO
    INDEX 00 02:26:63
    INDEX 01 02:28:63
  TRACK 03 AUDIO
    INDEX 00 09:10:65
    INDEX 01 09:12:65
  TRACK 04 AUDIO
    INDEX 00 16:13:39
    INDEX 01 16:15:39
  TRACK 05 AUDIO
    INDEX 00 24:14:73
    INDEX 01 24:16:73
  TRACK 06 AUDIO
    INDEX 00 30:40:73
    INDEX 01 30:42:73
REM LEADOUT 37:06:50
